<svg width="62" height="62" viewBox="0 0 62 62" xmlns="http://www.w3.org/2000/svg">
<circle cx="31" cy="31" r="31"/>
<path d="M39.9461 38.7775C39.2083 38.761 38.4891 38.5431 37.8661 38.1475C37.2157 37.7079 36.6184 37.1945 36.0861 36.6175C35.6461 36.1775 34.9161 35.4375 34.6361 35.4375C34.3561 35.4375 34.1561 36.3575 34.1661 37.0075C34.1703 37.4562 34.0021 37.8894 33.6961 38.2175C33.3481 38.5018 32.9234 38.6758 32.4761 38.7175H30.5561C27.7965 38.6568 25.1541 37.59 23.1261 35.7175C19.4461 32.3475 16.2861 25.9075 16.1561 25.6275C16.0321 25.3936 15.9801 25.1282 16.0068 24.8648C16.0335 24.6014 16.1377 24.3518 16.3061 24.1475C16.6872 23.8297 17.1698 23.6593 17.6661 23.6675H21.7461H21.8661C22.2036 23.7168 22.5272 23.836 22.8161 24.0175C23.0879 24.1998 23.3055 24.452 23.4461 24.7475C23.8772 25.6706 24.3717 26.5627 24.9261 27.4175C26.2361 29.4175 26.8161 29.8775 27.0261 29.9775C27.2597 29.0398 27.324 28.0679 27.2161 27.1075C27.2511 26.6701 27.179 26.2308 27.0061 25.8275C26.7865 25.6519 26.5169 25.5504 26.2361 25.5375L25.5061 24.8475C25.3661 24.1875 26.0961 23.6175 26.6061 23.3975C27.6238 23.0786 28.6916 22.9498 29.7561 23.0175H30.4661C31.1881 22.9987 31.9099 23.0659 32.6161 23.2175C34.3161 23.5775 34.2561 24.9475 34.1861 26.5275C34.1861 26.9875 34.1361 27.5275 34.1361 28.1475C34.1361 28.2975 34.1361 28.4575 34.1361 28.6275C34.0967 29.0629 34.1271 29.5017 34.2261 29.9275C35.0586 29.2311 35.7597 28.3912 36.2961 27.4475C36.875 26.5553 37.3832 25.6191 37.8161 24.6475C37.9479 24.3403 38.1739 24.0827 38.4614 23.912C38.7489 23.7413 39.0832 23.6662 39.4161 23.6975H43.6961C43.8224 23.6855 43.9497 23.6855 44.0761 23.6975C45.0761 23.6975 45.6661 23.9875 45.9061 24.5475C46.1461 25.1075 46.0761 26.2075 43.5461 29.1575L42.5461 30.2875C42.0616 30.758 41.6443 31.293 41.3061 31.8775C41.6848 32.3081 42.1147 32.6909 42.5861 33.0175C43.7353 33.8835 44.7468 34.9186 45.5861 36.0875C45.7829 36.3148 45.9117 36.593 45.9576 36.8901C46.0036 37.1873 45.965 37.4914 45.8461 37.7675C45.6365 38.0734 45.3561 38.3241 45.0288 38.4982C44.7014 38.6723 44.3368 38.7647 43.9661 38.7675L40.1761 38.8175L39.9461 38.7775ZM34.6361 33.9375C35.5361 33.9375 36.3161 34.7275 37.1461 35.5575C37.5944 36.0471 38.0977 36.4833 38.6461 36.8575C39.0607 37.1333 39.5481 37.2795 40.0461 37.2775H40.1461L43.9461 37.2275C44.1335 37.2168 44.317 37.1692 44.4861 37.0875L44.3861 36.9275C43.6291 35.8959 42.7263 34.9797 41.7061 34.2075C40.5161 33.2075 39.9061 32.7375 39.8361 31.9675C39.7661 31.1975 40.3261 30.5275 41.4461 29.2575L42.4461 28.1475C43.2903 27.2864 43.9834 26.2891 44.4961 25.1975C44.2729 25.1843 44.0492 25.1843 43.8261 25.1975H39.4561C39.377 25.1799 39.2951 25.1799 39.2161 25.1975C38.7532 26.259 38.2012 27.2793 37.5661 28.2475C35.6761 31.0675 34.7861 31.4475 34.1561 31.4475C33.9607 31.4475 33.7684 31.3995 33.5961 31.3075C32.5961 30.7375 32.5961 29.4675 32.6561 28.5475C32.6561 28.3975 32.6561 28.2475 32.6561 28.1175C32.6561 27.4675 32.6561 26.9075 32.7061 26.4275C32.7861 24.7475 32.7061 24.7375 32.3261 24.6475C31.7138 24.5265 31.09 24.4729 30.4661 24.4875H29.7761C29.1411 24.4744 28.5061 24.5078 27.8761 24.5875C27.9715 24.6578 28.0558 24.7421 28.1261 24.8375C28.5385 25.4879 28.7442 26.2479 28.7161 27.0175C28.8461 28.6675 28.7761 30.8175 27.7161 31.3375C27.5284 31.4254 27.3233 31.4698 27.1161 31.4675C26.1861 31.4675 25.2661 30.5875 23.6961 28.2075C23.0936 27.2962 22.5556 26.3439 22.0861 25.3575L22.0061 25.2575C21.9051 25.2061 21.7974 25.169 21.6861 25.1475H17.6861H17.6161C18.2061 26.3675 21.0061 31.7675 24.1361 34.5975C25.8936 36.2122 28.1708 37.1451 30.5561 37.2275H32.4061C32.5004 37.2074 32.5914 37.1737 32.6761 37.1275C32.6761 37.1275 32.6761 37.1275 32.6761 37.0375C32.6761 36.7675 32.6761 34.4375 34.2561 34.0375C34.3784 33.9894 34.5059 33.9558 34.6361 33.9375Z" fill="#192144"/>
</svg>
