<svg width="62" height="62" viewBox="0 0 62 62" fill="none" xmlns="http://www.w3.org/2000/svg">
<circle cx="31" cy="31" r="31"/>
<path d="M44.2599 18.6866C43.9724 18.4483 43.6258 18.2922 43.2568 18.2349C42.8878 18.1777 42.5102 18.2213 42.1639 18.3612L18.2746 28.0052C17.8886 28.1639 17.5599 28.4362 17.3323 28.786C17.1046 29.1358 16.9887 29.5466 17 29.9638C17.0113 30.381 17.1492 30.7849 17.3954 31.1219C17.6417 31.4589 17.9846 31.713 18.3786 31.8506L23.5333 33.6399L26.3266 42.8746C26.3319 42.8932 26.3493 42.9052 26.3573 42.9226C26.3861 42.9963 26.4281 43.064 26.4813 43.1226C26.5621 43.2128 26.6664 43.2789 26.7826 43.3132C26.7959 43.3186 26.8053 43.3306 26.8186 43.3332H26.8266L26.8306 43.3346C26.9338 43.3568 27.041 43.3513 27.1413 43.3186C27.1519 43.3159 27.1626 43.3159 27.1746 43.3119C27.2709 43.2781 27.3581 43.2224 27.4293 43.1492C27.4373 43.1399 27.4506 43.1386 27.4586 43.1306L31.4759 38.6959L37.3386 43.2359C37.6946 43.5146 38.1333 43.6652 38.5853 43.6652C39.5639 43.6652 40.4079 42.9799 40.6093 42.0239L44.9586 20.6666C45.0324 20.304 45.0064 19.9282 44.8833 19.5793C44.7603 19.2303 44.5448 18.9213 44.2599 18.6852V18.6866ZM27.7839 35.3932L26.8413 39.9759L24.8746 33.4719L34.6279 28.3919L27.9653 35.0559C27.873 35.1481 27.8099 35.2654 27.7839 35.3932ZM39.3026 41.7559C39.2776 41.8768 39.2219 41.9893 39.1409 42.0824C39.0598 42.1756 38.9562 42.2463 38.8399 42.2879C38.7265 42.3316 38.6037 42.3449 38.4835 42.3267C38.3633 42.3085 38.25 42.2593 38.1546 42.1839L31.8039 37.2652C31.6712 37.1628 31.5047 37.1141 31.3376 37.1289C31.1706 37.1437 31.0152 37.221 30.9026 37.3452L28.1066 40.4266L29.0479 35.8572L38.6333 26.2706C38.7455 26.158 38.8138 26.0089 38.8259 25.8504C38.8379 25.6918 38.7928 25.5342 38.6989 25.4059C38.6049 25.2776 38.4681 25.1872 38.3133 25.1509C38.1585 25.1146 37.9958 25.1348 37.8546 25.2079L24.0373 32.4052L18.8146 30.5892C18.6761 30.5435 18.5554 30.4558 18.4691 30.3382C18.3828 30.2206 18.3354 30.0791 18.3333 29.9332C18.3266 29.7861 18.3659 29.6406 18.4457 29.5168C18.5255 29.3931 18.6419 29.2972 18.7786 29.2426L42.6639 19.5986C42.7863 19.5466 42.9208 19.5298 43.0523 19.55C43.1837 19.5703 43.3069 19.6268 43.4079 19.7132C43.5084 19.7946 43.5843 19.9022 43.6272 20.0242C43.6701 20.1461 43.6782 20.2776 43.6506 20.4039L39.3026 41.7572V41.7559Z" fill="black"/>
</svg>
