<svg width="95" height="95" viewBox="0 0 95 95" fill="none" xmlns="http://www.w3.org/2000/svg">
<path fill-rule="evenodd" clip-rule="evenodd" d="M5.47863 25.3333C1.98063 31.9508 0 39.4941 0 47.5C0 73.7335 21.2665 95 47.5 95C73.7335 95 95 73.7335 95 47.5C95 21.2665 73.7336 2.06161e-05 47.5 0V3C72.0767 3.00002 92 22.9233 92 47.5C92 72.0767 72.0767 92 47.5 92C22.9233 92 3 72.0767 3 47.5C3 39.429 5.14868 31.8598 8.90522 25.3333H5.47863Z" fill="#4D99D6"/>
<path d="M46.2704 47.18C46.2704 48.8747 45.8746 50.3034 45.0829 51.4662C44.2912 52.6165 43.2027 53.4886 41.8173 54.0824C40.4442 54.6637 38.8856 54.9544 37.1415 54.9544C35.3973 54.9544 33.8326 54.6637 32.4471 54.0824C31.0617 53.4886 29.967 52.6165 29.163 51.4662C28.3589 50.3034 27.9569 48.8747 27.9569 47.18C27.9569 46.042 28.1858 45.0153 28.6434 44.0999C29.1011 43.1722 29.7382 42.3805 30.5546 41.7249C31.3833 41.057 32.3544 40.5498 33.4677 40.2035C34.5809 39.8447 35.7932 39.6654 37.1044 39.6654C38.8609 39.6654 40.4318 39.9746 41.8173 40.5931C43.2027 41.2116 44.2912 42.0837 45.0829 43.2093C45.8746 44.335 46.2704 45.6585 46.2704 47.18ZM40.8895 46.8275C40.8895 45.9987 40.7287 45.2874 40.4071 44.6937C40.0979 44.0876 39.6587 43.6237 39.0897 43.3021C38.5207 42.9805 37.8589 42.8197 37.1044 42.8197C36.3498 42.8197 35.688 42.9805 35.119 43.3021C34.55 43.6237 34.1047 44.0876 33.7831 44.6937C33.4738 45.2874 33.3192 45.9987 33.3192 46.8275C33.3192 47.6439 33.4738 48.349 33.7831 48.9427C34.1047 49.5365 34.55 49.9942 35.119 50.3158C35.7004 50.625 36.3746 50.7796 37.1415 50.7796C37.9084 50.7796 38.5702 50.625 39.1268 50.3158C39.6958 49.9942 40.1288 49.5365 40.4257 48.9427C40.7349 48.349 40.8895 47.6439 40.8895 46.8275ZM45.6952 34.7298C45.6952 36.1029 45.3303 37.3213 44.6005 38.3851C43.8706 39.4365 42.8563 40.2591 41.5575 40.8529C40.271 41.4466 38.799 41.7435 37.1415 41.7435C35.4716 41.7435 33.9872 41.4466 32.6884 40.8529C31.3895 40.2591 30.3752 39.4365 29.6454 38.3851C28.9156 37.3213 28.5507 36.1029 28.5507 34.7298C28.5507 33.097 28.9156 31.724 29.6454 30.6107C30.3876 29.485 31.4019 28.6315 32.6884 28.0501C33.9872 27.4688 35.4592 27.1781 37.1044 27.1781C38.7743 27.1781 40.2525 27.4688 41.5389 28.0501C42.8378 28.6315 43.8521 29.485 44.5819 30.6107C45.3241 31.724 45.6952 33.097 45.6952 34.7298ZM40.3514 34.971C40.3514 34.2412 40.2216 33.6104 39.9618 33.0785C39.702 32.5342 39.3309 32.1136 38.8485 31.8167C38.3785 31.5199 37.7971 31.3714 37.1044 31.3714C36.4364 31.3714 35.8612 31.5137 35.3788 31.7982C34.9087 32.0827 34.5438 32.4971 34.2841 33.0414C34.0367 33.5733 33.913 34.2165 33.913 34.971C33.913 35.7009 34.0367 36.3441 34.2841 36.9007C34.5438 37.445 34.9149 37.8718 35.3973 38.181C35.8798 38.4902 36.4611 38.6449 37.1415 38.6449C37.8218 38.6449 38.397 38.4902 38.8671 38.181C39.3495 37.8718 39.7144 37.445 39.9618 36.9007C40.2216 36.3441 40.3514 35.7009 40.3514 34.971ZM68.0721 38.7005V43.3763C68.0721 45.405 67.8557 47.1553 67.4227 48.6273C66.9898 50.0869 66.3651 51.2868 65.5487 52.2269C64.7447 53.1546 63.786 53.8412 62.6727 54.2865C61.5594 54.7318 60.3225 54.9544 58.9618 54.9544C57.8733 54.9544 56.8589 54.8184 55.9188 54.5462C54.9787 54.2617 54.1314 53.8226 53.3768 53.2289C52.6346 52.6351 51.9914 51.8867 51.4471 50.9837C50.9152 50.0684 50.507 48.9798 50.2225 47.7181C49.938 46.4564 49.7958 45.0091 49.7958 43.3763V38.7005C49.7958 36.6719 50.0122 34.9339 50.4452 33.4867C50.8905 32.027 51.5152 30.8333 52.3192 29.9056C53.1356 28.9779 54.1005 28.2975 55.2137 27.8646C56.327 27.4193 57.564 27.1966 58.9247 27.1966C60.0132 27.1966 61.0214 27.3389 61.9491 27.6234C62.8892 27.8955 63.7365 28.3223 64.4911 28.9037C65.2456 29.485 65.8889 30.2334 66.4208 31.1488C66.9527 32.0518 67.3609 33.1341 67.6454 34.3958C67.9299 35.6452 68.0721 37.0801 68.0721 38.7005ZM62.7098 44.0814V37.9769C62.7098 36.9997 62.6542 36.1462 62.5428 35.4164C62.4439 34.6865 62.2893 34.068 62.079 33.5609C61.8687 33.0414 61.6089 32.6208 61.2997 32.2992C60.9904 31.9775 60.6379 31.7425 60.2421 31.5941C59.8462 31.4456 59.4071 31.3714 58.9247 31.3714C58.3186 31.3714 57.7805 31.4889 57.3104 31.724C56.8527 31.959 56.4631 32.3363 56.1415 32.8558C55.8199 33.363 55.5725 34.0433 55.3993 34.8968C55.2385 35.738 55.1581 36.7647 55.1581 37.9769V44.0814C55.1581 45.0586 55.2076 45.9183 55.3065 46.6605C55.4178 47.4027 55.5787 48.0397 55.7889 48.5716C56.0116 49.0912 56.2714 49.5179 56.5682 49.8519C56.8775 50.1735 57.23 50.4085 57.6259 50.557C58.0341 50.7054 58.4794 50.7796 58.9618 50.7796C59.5555 50.7796 60.0813 50.6621 60.5389 50.4271C61.009 50.1797 61.4048 49.7962 61.7264 49.2767C62.0604 48.7448 62.3078 48.0521 62.4686 47.1986C62.6294 46.3451 62.7098 45.306 62.7098 44.0814Z" fill="white"/>
<line opacity="0.3" x1="21.5833" y1="57.4167" x2="75" y2="57.4167" stroke="white" stroke-width="2"/>
<path d="M32.0059 65.5V79H30.3711V65.5H32.0059ZM38.5625 79.1758C37.9004 79.1758 37.2998 79.0645 36.7607 78.8418C36.2275 78.6133 35.7676 78.2939 35.3809 77.8838C35 77.4736 34.707 76.9873 34.502 76.4248C34.2969 75.8623 34.1943 75.2471 34.1943 74.5791V74.21C34.1943 73.4365 34.3086 72.748 34.5371 72.1445C34.7656 71.5352 35.0762 71.0195 35.4688 70.5977C35.8613 70.1758 36.3066 69.8564 36.8047 69.6396C37.3027 69.4229 37.8184 69.3145 38.3516 69.3145C39.0312 69.3145 39.6172 69.4316 40.1094 69.666C40.6074 69.9004 41.0146 70.2285 41.3311 70.6504C41.6475 71.0664 41.8818 71.5586 42.0342 72.127C42.1865 72.6895 42.2627 73.3047 42.2627 73.9727V74.7021H35.1611V73.375H40.6367V73.252C40.6133 72.8301 40.5254 72.4199 40.373 72.0215C40.2266 71.623 39.9922 71.2949 39.6699 71.0371C39.3477 70.7793 38.9082 70.6504 38.3516 70.6504C37.9824 70.6504 37.6426 70.7295 37.332 70.8877C37.0215 71.04 36.7549 71.2686 36.5322 71.5732C36.3096 71.8779 36.1367 72.25 36.0137 72.6895C35.8906 73.1289 35.8291 73.6357 35.8291 74.21V74.5791C35.8291 75.0303 35.8906 75.4551 36.0137 75.8535C36.1426 76.2461 36.3271 76.5918 36.5674 76.8906C36.8135 77.1895 37.1094 77.4238 37.4551 77.5938C37.8066 77.7637 38.2051 77.8486 38.6504 77.8486C39.2246 77.8486 39.7109 77.7314 40.1094 77.4971C40.5078 77.2627 40.8564 76.9492 41.1553 76.5566L42.1396 77.3389C41.9346 77.6494 41.6738 77.9453 41.3574 78.2266C41.041 78.5078 40.6514 78.7363 40.1885 78.9121C39.7314 79.0879 39.1895 79.1758 38.5625 79.1758ZM46.9297 77.5322L49.5312 69.4902H51.1924L47.7734 79H46.6836L46.9297 77.5322ZM44.7588 69.4902L47.4395 77.5762L47.624 79H46.5342L43.0889 69.4902H44.7588ZM56.5801 79.1758C55.918 79.1758 55.3174 79.0645 54.7783 78.8418C54.2451 78.6133 53.7852 78.2939 53.3984 77.8838C53.0176 77.4736 52.7246 76.9873 52.5195 76.4248C52.3145 75.8623 52.2119 75.2471 52.2119 74.5791V74.21C52.2119 73.4365 52.3262 72.748 52.5547 72.1445C52.7832 71.5352 53.0938 71.0195 53.4863 70.5977C53.8789 70.1758 54.3242 69.8564 54.8223 69.6396C55.3203 69.4229 55.8359 69.3145 56.3691 69.3145C57.0488 69.3145 57.6348 69.4316 58.127 69.666C58.625 69.9004 59.0322 70.2285 59.3486 70.6504C59.665 71.0664 59.8994 71.5586 60.0518 72.127C60.2041 72.6895 60.2803 73.3047 60.2803 73.9727V74.7021H53.1787V73.375H58.6543V73.252C58.6309 72.8301 58.543 72.4199 58.3906 72.0215C58.2441 71.623 58.0098 71.2949 57.6875 71.0371C57.3652 70.7793 56.9258 70.6504 56.3691 70.6504C56 70.6504 55.6602 70.7295 55.3496 70.8877C55.0391 71.04 54.7725 71.2686 54.5498 71.5732C54.3271 71.8779 54.1543 72.25 54.0312 72.6895C53.9082 73.1289 53.8467 73.6357 53.8467 74.21V74.5791C53.8467 75.0303 53.9082 75.4551 54.0312 75.8535C54.1602 76.2461 54.3447 76.5918 54.585 76.8906C54.8311 77.1895 55.127 77.4238 55.4727 77.5938C55.8242 77.7637 56.2227 77.8486 56.668 77.8486C57.2422 77.8486 57.7285 77.7314 58.127 77.4971C58.5254 77.2627 58.874 76.9492 59.1729 76.5566L60.1572 77.3389C59.9521 77.6494 59.6914 77.9453 59.375 78.2266C59.0586 78.5078 58.6689 78.7363 58.2061 78.9121C57.749 79.0879 57.207 79.1758 56.5801 79.1758ZM63.9453 65.5V79H62.3105V65.5H63.9453Z" fill="white"/>
</svg>
