<svg width="94" height="94" viewBox="0 0 94 94" fill="none" xmlns="http://www.w3.org/2000/svg">
<path fill-rule="evenodd" clip-rule="evenodd" d="M5.42096 25.0667C1.95978 31.6144 0 39.0784 0 47C0 72.9574 21.0426 94 47 94C72.9574 94 94 72.9574 94 47C94 21.0426 72.9574 0 47 0V3C71.3005 3 91 22.6995 91 47C91 71.3005 71.3005 91 47 91C22.6995 91 3 71.3005 3 47C3 39.0132 5.12799 31.5234 8.84793 25.0667H5.42096Z" fill="#478AC4"/>
<path d="M46.4952 44.5967C46.4952 46.2913 46.0993 47.7201 45.3077 48.8828C44.516 50.0332 43.4275 50.9053 42.0421 51.499C40.669 52.0804 39.1104 52.3711 37.3663 52.3711C35.6221 52.3711 34.0574 52.0804 32.6719 51.499C31.2865 50.9053 30.1918 50.0332 29.3878 48.8828C28.5837 47.7201 28.1817 46.2913 28.1817 44.5967C28.1817 43.4587 28.4105 42.432 28.8682 41.5166C29.3259 40.5889 29.963 39.7972 30.7794 39.1416C31.6081 38.4736 32.5792 37.9665 33.6924 37.6201C34.8057 37.2614 36.018 37.082 37.3292 37.082C39.0857 37.082 40.6566 37.3913 42.0421 38.0098C43.4275 38.6283 44.516 39.5003 45.3077 40.626C46.0993 41.7516 46.4952 43.0752 46.4952 44.5967ZM41.1143 44.2441C41.1143 43.4154 40.9535 42.7041 40.6319 42.1104C40.3227 41.5042 39.8835 41.0404 39.3145 40.7188C38.7455 40.3971 38.0837 40.2363 37.3292 40.2363C36.5746 40.2363 35.9128 40.3971 35.3438 40.7188C34.7748 41.0404 34.3295 41.5042 34.0079 42.1104C33.6986 42.7041 33.544 43.4154 33.544 44.2441C33.544 45.0605 33.6986 45.7656 34.0079 46.3594C34.3295 46.9531 34.7748 47.4108 35.3438 47.7324C35.9252 48.0417 36.5993 48.1963 37.3663 48.1963C38.1332 48.1963 38.795 48.0417 39.3516 47.7324C39.9206 47.4108 40.3536 46.9531 40.6505 46.3594C40.9597 45.7656 41.1143 45.0605 41.1143 44.2441ZM45.92 32.1465C45.92 33.5195 45.5551 34.738 44.8253 35.8018C44.0954 36.8532 43.0811 37.6758 41.7823 38.2695C40.4958 38.8633 39.0238 39.1602 37.3663 39.1602C35.6964 39.1602 34.212 38.8633 32.9131 38.2695C31.6143 37.6758 30.6 36.8532 29.8702 35.8018C29.1404 34.738 28.7755 33.5195 28.7755 32.1465C28.7755 30.5137 29.1404 29.1406 29.8702 28.0273C30.6124 26.9017 31.6267 26.0482 32.9131 25.4668C34.212 24.8854 35.684 24.5947 37.3292 24.5947C38.9991 24.5947 40.4773 24.8854 41.7637 25.4668C43.0626 26.0482 44.0769 26.9017 44.8067 28.0273C45.5489 29.1406 45.92 30.5137 45.92 32.1465ZM40.5762 32.3877C40.5762 31.6579 40.4464 31.027 40.1866 30.4951C39.9268 29.9508 39.5557 29.5303 39.0733 29.2334C38.6033 28.9365 38.0219 28.7881 37.3292 28.7881C36.6612 28.7881 36.086 28.9303 35.6036 29.2148C35.1335 29.4993 34.7686 29.9137 34.5089 30.458C34.2615 30.9899 34.1378 31.6331 34.1378 32.3877C34.1378 33.1175 34.2615 33.7607 34.5089 34.3174C34.7686 34.8617 35.1397 35.2884 35.6221 35.5977C36.1046 35.9069 36.6859 36.0615 37.3663 36.0615C38.0466 36.0615 38.6218 35.9069 39.0919 35.5977C39.5743 35.2884 39.9392 34.8617 40.1866 34.3174C40.4464 33.7607 40.5762 33.1175 40.5762 32.3877ZM68.2969 36.1172V40.793C68.2969 42.8216 68.0805 44.5719 67.6475 46.0439C67.2146 47.5036 66.5899 48.7035 65.7735 49.6436C64.9695 50.5713 64.0108 51.2578 62.8975 51.7031C61.7842 52.1484 60.5473 52.3711 59.1866 52.3711C58.098 52.3711 57.0837 52.235 56.1436 51.9629C55.2035 51.6784 54.3562 51.2393 53.6016 50.6455C52.8594 50.0518 52.2162 49.3034 51.6719 48.4004C51.14 47.485 50.7318 46.3965 50.4473 45.1348C50.1628 43.873 50.0206 42.4258 50.0206 40.793V36.1172C50.0206 34.0885 50.237 32.3506 50.67 30.9033C51.1153 29.4437 51.74 28.25 52.544 27.3223C53.3604 26.3945 54.3253 25.7142 55.4385 25.2812C56.5518 24.8359 57.7888 24.6133 59.1495 24.6133C60.238 24.6133 61.2462 24.7555 62.1739 25.04C63.114 25.3122 63.9613 25.7389 64.7159 26.3203C65.4704 26.9017 66.1137 27.6501 66.6456 28.5654C67.1775 29.4684 67.5857 30.5508 67.8702 31.8125C68.1547 33.0618 68.2969 34.4967 68.2969 36.1172ZM62.9346 41.498V35.3936C62.9346 34.4163 62.879 33.5628 62.7676 32.833C62.6687 32.1032 62.5141 31.4847 62.3038 30.9775C62.0935 30.458 61.8337 30.0374 61.5245 29.7158C61.2152 29.3942 60.8627 29.1592 60.4669 29.0107C60.071 28.8623 59.6319 28.7881 59.1495 28.7881C58.5434 28.7881 58.0053 28.9056 57.5352 29.1406C57.0775 29.3757 56.6879 29.7529 56.3663 30.2725C56.0447 30.7796 55.7973 31.46 55.6241 32.3135C55.4633 33.1546 55.3829 34.1813 55.3829 35.3936V41.498C55.3829 42.4753 55.4324 43.335 55.5313 44.0771C55.6426 44.8193 55.8034 45.4564 56.0137 45.9883C56.2364 46.5078 56.4962 46.9346 56.793 47.2686C57.1023 47.5902 57.4548 47.8252 57.8506 47.9736C58.2589 48.1221 58.7042 48.1963 59.1866 48.1963C59.7803 48.1963 60.3061 48.0788 60.7637 47.8438C61.2338 47.5964 61.6296 47.2129 61.9512 46.6934C62.2852 46.1615 62.5326 45.4688 62.6934 44.6152C62.8542 43.7617 62.9346 42.7227 62.9346 41.498Z" fill="#161C35"/>
<line opacity="0.3" x1="23.0001" y1="55.5" x2="78" y2="55.5" stroke="#444444"/>
<path d="M35.1726 63.5V77H33.5378V63.5H35.1726ZM41.7292 77.1758C41.0671 77.1758 40.4665 77.0645 39.9275 76.8418C39.3943 76.6133 38.9343 76.2939 38.5476 75.8838C38.1667 75.4736 37.8737 74.9873 37.6687 74.4248C37.4636 73.8623 37.3611 73.2471 37.3611 72.5791V72.21C37.3611 71.4365 37.4753 70.748 37.7038 70.1445C37.9323 69.5352 38.2429 69.0195 38.6355 68.5977C39.028 68.1758 39.4734 67.8564 39.9714 67.6396C40.4695 67.4229 40.9851 67.3145 41.5183 67.3145C42.198 67.3145 42.7839 67.4316 43.2761 67.666C43.7741 67.9004 44.1814 68.2285 44.4978 68.6504C44.8142 69.0664 45.0486 69.5586 45.2009 70.127C45.3532 70.6895 45.4294 71.3047 45.4294 71.9727V72.7021H38.3279V71.375H43.8034V71.252C43.78 70.8301 43.6921 70.4199 43.5398 70.0215C43.3933 69.623 43.1589 69.2949 42.8366 69.0371C42.5144 68.7793 42.0749 68.6504 41.5183 68.6504C41.1491 68.6504 40.8093 68.7295 40.4987 68.8877C40.1882 69.04 39.9216 69.2686 39.6989 69.5732C39.4763 69.8779 39.3034 70.25 39.1804 70.6895C39.0573 71.1289 38.9958 71.6357 38.9958 72.21V72.5791C38.9958 73.0303 39.0573 73.4551 39.1804 73.8535C39.3093 74.2461 39.4939 74.5918 39.7341 74.8906C39.9802 75.1895 40.2761 75.4238 40.6218 75.5938C40.9734 75.7637 41.3718 75.8486 41.8171 75.8486C42.3913 75.8486 42.8777 75.7314 43.2761 75.4971C43.6745 75.2627 44.0232 74.9492 44.322 74.5566L45.3064 75.3389C45.1013 75.6494 44.8405 75.9453 44.5241 76.2266C44.2077 76.5078 43.8181 76.7363 43.3552 76.9121C42.8982 77.0879 42.3562 77.1758 41.7292 77.1758ZM50.0964 75.5322L52.698 67.4902H54.3591L50.9402 77H49.8503L50.0964 75.5322ZM47.9255 67.4902L50.6062 75.5762L50.7907 77H49.7009L46.2556 67.4902H47.9255ZM59.7468 77.1758C59.0847 77.1758 58.4841 77.0645 57.945 76.8418C57.4118 76.6133 56.9519 76.2939 56.5652 75.8838C56.1843 75.4736 55.8913 74.9873 55.6862 74.4248C55.4812 73.8623 55.3786 73.2471 55.3786 72.5791V72.21C55.3786 71.4365 55.4929 70.748 55.7214 70.1445C55.9499 69.5352 56.2605 69.0195 56.653 68.5977C57.0456 68.1758 57.4909 67.8564 57.989 67.6396C58.487 67.4229 59.0027 67.3145 59.5359 67.3145C60.2155 67.3145 60.8015 67.4316 61.2937 67.666C61.7917 67.9004 62.1989 68.2285 62.5154 68.6504C62.8318 69.0664 63.0661 69.5586 63.2185 70.127C63.3708 70.6895 63.447 71.3047 63.447 71.9727V72.7021H56.3454V71.375H61.821V71.252C61.7976 70.8301 61.7097 70.4199 61.5573 70.0215C61.4109 69.623 61.1765 69.2949 60.8542 69.0371C60.532 68.7793 60.0925 68.6504 59.5359 68.6504C59.1667 68.6504 58.8269 68.7295 58.5163 68.8877C58.2058 69.04 57.9392 69.2686 57.7165 69.5732C57.4939 69.8779 57.321 70.25 57.198 70.6895C57.0749 71.1289 57.0134 71.6357 57.0134 72.21V72.5791C57.0134 73.0303 57.0749 73.4551 57.198 73.8535C57.3269 74.2461 57.5114 74.5918 57.7517 74.8906C57.9978 75.1895 58.2937 75.4238 58.6394 75.5938C58.9909 75.7637 59.3894 75.8486 59.8347 75.8486C60.4089 75.8486 60.8952 75.7314 61.2937 75.4971C61.6921 75.2627 62.0407 74.9492 62.3396 74.5566L63.3239 75.3389C63.1189 75.6494 62.8581 75.9453 62.5417 76.2266C62.2253 76.5078 61.8357 76.7363 61.3728 76.9121C60.9157 77.0879 60.3737 77.1758 59.7468 77.1758ZM67.112 63.5V77H65.4773V63.5H67.112Z" fill="#444444"/>
</svg>
